Coordinates
version=1
nRows=9
nColumns=24
inDegrees=yes

Units are S.I. units (second, meters, Newtons, ...)
Angles are in degrees.

endheader
time	pelvis_tilt	pelvis_list	pelvis_rotation	pelvis_tx	pelvis_ty	pelvis_tz	hip_flexion_r	hip_adduction_r	hip_rotation_r	knee_angle_r	ankle_angle_r	subtalar_angle_r	mtp_angle_r	hip_flexion_l	hip_adduction_l	hip_rotation_l	knee_angle_l	ankle_angle_l	subtalar_angle_l	mtp_angle_l	lumbar_extension	lumbar_bending	lumbar_rotation
      3.13500000	     18.95405662	     -9.46912550	      7.73159959	      0.40713655	      0.96935881	      0.01820668	    -14.74180552	     16.21497730	    -14.81636547	     -5.83309760	      6.50512232	      2.08362510	      8.64449547	     -5.39529736	    -16.51706808	     -4.11901856	    -64.17239285	     -0.69361070	     -6.71172673	     26.59719085	    -28.56086509	     11.10943153	     -1.36862166
      3.14000000	     18.80131701	     -9.27667406	      7.65107960	      0.41254784	      0.96961649	      0.01831638	    -15.13416622	     16.05220864	    -14.58749786	     -5.54792332	      6.70459386	      2.08891351	      8.65104091	     -4.40481339	    -16.17239539	     -3.97923208	    -64.15429599	      0.34194027	     -6.92315154	     26.71458315	    -28.50202479	     10.87618512	     -1.37157598
      3.14500000	     18.73131524	     -9.13144054	      7.61020644	      0.41806811	      0.96989658	      0.01841726	    -15.59355066	     15.95081962	    -14.33392527	     -5.30716682	      6.93321759	      2.12571268	      8.66829300	     -3.52271265	    -15.89718081	     -3.85320308	    -64.05668703	      1.30935553	     -7.24125757	     26.80325667	    -28.48862130	     10.70133636	     -1.42198404
      3.15000000	     18.63429686	     -9.02347851	      7.56051870	      0.42375230	      0.97008862	      0.01857821	    -16.08423427	     15.90042559	    -14.00394876	     -4.95550261	      7.11331667	      1.97120439	      8.60067575	     -2.63015098	    -15.64849328	     -3.70850534	    -63.88676047	      2.27466277	     -7.29071006	     26.84125765	    -28.44139888	     10.55409491	     -1.43004551
      3.15500000	     18.60903016	     -8.88559067	      7.46212302	      0.42931819	      0.97043779	      0.01877661	    -16.66915178	     15.81375940	    -13.47613095	     -4.56994930	      7.18992938	      1.68927998	      8.47191510	     -1.87855255	    -15.39446685	     -3.71888456	    -63.60975218	      3.25767465	     -7.28656611	     26.65342551	    -28.48171533	     10.35664616	     -1.34344765
      3.16000000	     18.55415770	     -8.72700391	      7.41694233	      0.43462243	      0.97066812	      0.01876429	    -17.16076561	     15.68760277	    -13.24158203	     -4.26387319	      7.38305202	      1.75003506	      8.48521831	     -1.07093085	    -15.09000014	     -3.68188381	    -63.24959567	      4.13950439	     -7.42779358	     26.70191737	    -28.52815037	     10.17710241	     -1.34896446
      3.16500000	     18.49487350	     -8.61303444	      7.27719892	      0.44019525	      0.97085627	      0.01900269	    -17.70103927	     15.60472077	    -12.85183544	     -3.89900792	      7.51837065	      1.51697262	      8.25273995	     -0.34416116	    -14.86272566	     -3.78153594	    -62.82325056	      5.39004210	     -6.85849775	     25.42303116	    -28.54314511	      9.98835129	     -1.24370361
      3.17000000	     18.48775929	     -8.43833917	      7.17299553	      0.44579277	      0.97105559	      0.01908797	    -18.27789355	     15.45045093	    -12.62857644	     -3.58120996	      7.74010562	      1.62840744	      8.25172790	      0.27902712	    -14.53377670	     -3.79852776	    -62.23305939	      6.30766858	     -6.73500532	     25.53470662	    -28.61061651	      9.76615196	     -1.16743778
      3.17500000	     18.48633639	     -8.23060113	      7.05704095	      0.45147661	      0.97128576	      0.01912160	    -18.88797030	     15.26493078	    -12.31050635	     -3.23564824	      7.92750167	      1.54379979	      8.22517337	      0.84724668	    -14.15263471	     -3.84215140	    -61.54951804	      7.21515138	     -6.44093390	     25.60624681	    -28.67887594	      9.51452748	     -1.11647813
